<svg width="136" height="58" viewBox="0 0 136 58" fill="none" xmlns="http://www.w3.org/2000/svg">
<g filter="url(#filter0_d_220_1092)">
<rect x="6" y="2" width="124" height="46" rx="14" fill="white" shape-rendering="crispEdges"/>
<rect x="6.5" y="2.5" width="123" height="45" rx="13.5" stroke="#CECEEA" shape-rendering="crispEdges"/>
<g clip-path="url(#clip0_220_1092)">
<g clip-path="url(#clip1_220_1092)">
<g clip-path="url(#clip2_220_1092)">
<path d="M21.0283 30.3023L24.3916 27.6999C26.1785 30.0554 28.0769 31.1412 30.1901 31.1412C32.292 31.1412 34.1368 30.0683 35.8431 27.7312L39.2544 30.2709C36.7923 33.6409 33.7327 35.4215 30.1901 35.4215C26.6587 35.4215 23.5695 33.6524 21.0283 30.3023Z" fill="url(#paint0_linear_220_1092)"/>
<path d="M30.1794 18.9915L24.193 24.2021L21.4258 20.9605L30.1921 13.33L38.8891 20.9662L36.1092 24.1964L30.1794 18.9915Z" fill="url(#paint1_linear_220_1092)"/>
<path fill-rule="evenodd" clip-rule="evenodd" d="M63.522 18.5583C63.522 19.6854 64.3356 20.5072 65.4516 20.5072V20.5087C66.5308 20.5087 67.3641 19.6854 67.3641 18.5583C67.3641 17.4682 66.5308 16.6464 65.4516 16.6464C64.3738 16.6464 63.522 17.4682 63.522 18.5583ZM62.2949 17.411V31.9984H58.9641V17.411H62.2949ZM52.1515 32.209C50.1079 32.2089 48.4046 31.5397 47.0233 30.2016C45.6418 28.8447 44.9609 27.1054 44.9609 24.9824C44.9609 22.8422 45.6601 21.083 47.0416 19.7061C48.4429 18.3108 50.1464 17.6231 52.172 17.6231C54.6708 17.6231 56.8843 18.7117 58.1725 20.4139L55.9181 22.8037C54.8389 21.6366 53.6651 21.0445 52.398 21.0445C51.3188 21.0445 50.4289 21.4069 49.6901 22.1531C48.9712 22.8993 48.6124 23.8367 48.6124 24.9638C48.6124 26.0539 48.9712 26.9713 49.6901 27.7175C50.4289 28.4438 51.3188 28.8062 52.3782 28.8062C53.7597 28.8062 54.9717 28.1941 55.9746 26.9899L58.3223 29.2656C57.6781 30.1259 56.808 30.8336 55.7288 31.3872C54.6498 31.9421 53.4579 32.2089 52.1515 32.209ZM67.1365 21.4443V31.9982H63.7859V21.4443H67.1365ZM69.5384 30.6786C70.578 31.7115 71.903 32.2281 73.55 32.2281C75.7649 32.2281 77.6379 31.138 78.5476 29.3788L75.8779 27.7736C75.4993 28.5955 74.6094 29.1305 73.6446 29.1305C72.2999 29.1305 71.297 28.0975 71.297 26.7021C71.2852 26.0688 71.5236 25.4568 71.9595 25.0014C72.4143 24.542 72.9822 24.3123 73.6828 24.3123C74.6476 24.3123 75.3863 24.7717 75.916 25.6706L78.5843 24.2552C77.6958 22.2477 75.7833 21.1776 73.6065 21.1776C71.9411 21.1776 70.5978 21.6927 69.5567 22.7257C68.5157 23.7587 68.0043 25.077 68.0043 26.7021C68.0043 28.3272 68.5157 29.647 69.5384 30.6786ZM90.1649 31.9984H86.1889L83.1022 27.8108L82.6109 28.2702V31.9984H79.2815V17.411H82.6121V24.5035L85.7537 21.4445H89.8236L85.3388 25.6892L90.1649 31.9984ZM90.3884 17.8692V26.5112C90.3884 30.6789 93.2656 32.2469 96.1616 32.2469C99.0756 32.2469 101.935 30.6789 101.935 26.5112V17.8692H98.3567V26.4541C98.3567 28.0022 97.4482 28.8055 96.1616 28.8055C94.8551 28.8055 93.9466 28.0407 93.9466 26.4541V17.8692H90.3884ZM109.842 21.1776C111.338 21.1776 112.55 21.7127 113.515 22.7828C114.479 23.8343 114.953 25.154 114.953 26.7021C114.953 28.2516 114.461 29.57 113.497 30.66C112.53 31.7301 111.32 32.2666 109.862 32.2666C108.707 32.2666 107.704 31.8842 106.89 31.1194V36.3386H103.539V21.4444H106.834V22.4203C107.647 21.5971 108.65 21.1776 109.842 21.1776ZM109.199 24.3127C110.563 24.3127 111.546 25.3642 111.546 26.741H111.547C111.555 27.3799 111.317 27.997 110.883 28.4617C110.448 28.9397 109.88 29.1694 109.199 29.1694C108.517 29.1694 107.949 28.9397 107.496 28.4617C107.06 27.9838 106.834 27.4102 106.834 26.741C106.834 25.3642 107.836 24.3127 109.199 24.3127Z" fill="black"/>
</g>
</g>
</g>
</g>
<defs>
<filter id="filter0_d_220_1092" x="0" y="0" width="136" height="58" filterUnits="userSpaceOnUse" color-interpolation-filters="sRGB">
<feFlood flood-opacity="0" result="BackgroundImageFix"/>
<feColorMatrix in="SourceAlpha" type="matrix" values="0 0 0 0 0 0 0 0 0 0 0 0 0 0 0 0 0 0 127 0" result="hardAlpha"/>
<feOffset dy="4"/>
<feGaussianBlur stdDeviation="3"/>
<feComposite in2="hardAlpha" operator="out"/>
<feColorMatrix type="matrix" values="0 0 0 0 0.262745 0 0 0 0 0.180392 0 0 0 0 0.52549 0 0 0 0.04 0"/>
<feBlend mode="normal" in2="BackgroundImageFix" result="effect1_dropShadow_220_1092"/>
<feBlend mode="normal" in="SourceGraphic" in2="effect1_dropShadow_220_1092" result="shape"/>
</filter>
<linearGradient id="paint0_linear_220_1092" x1="21.0283" y1="36.8123" x2="39.2544" y2="36.8123" gradientUnits="userSpaceOnUse">
<stop stop-color="#7612FA"/>
<stop offset="1" stop-color="#40DDFF"/>
</linearGradient>
<linearGradient id="paint1_linear_220_1092" x1="21.4258" y1="26.1602" x2="38.8891" y2="26.1602" gradientUnits="userSpaceOnUse">
<stop stop-color="#FA12E3"/>
<stop offset="1" stop-color="#FFD700"/>
</linearGradient>
<clipPath id="clip0_220_1092">
<rect width="94" height="23.34" fill="white" transform="translate(21 13.33)"/>
</clipPath>
<clipPath id="clip1_220_1092">
<rect width="94" height="23.34" fill="white" transform="translate(21 13.33)"/>
</clipPath>
<clipPath id="clip2_220_1092">
<rect width="93.9435" height="23.34" fill="white" transform="translate(21.0283 13.33)"/>
</clipPath>
</defs>
</svg>
