<svg width="23" height="24" viewBox="0 0 23 24" fill="none" xmlns="http://www.w3.org/2000/svg">
<path d="M17.5298 5.40997L16.3801 6.40997L11.4851 10.46L6.59004 6.36997L5.44038 5.36997C5.16954 5.12052 4.83892 4.96501 4.48948 4.92272C4.14004 4.88043 3.78713 4.95322 3.47447 5.13206C3.16182 5.3109 2.90317 5.58793 2.73055 5.92885C2.55793 6.26976 2.47894 6.65957 2.50337 7.04997V18.64C2.50337 19.0007 2.63206 19.3466 2.86114 19.6016C3.09022 19.8567 3.40091 20 3.72488 20H6.59004V12.28L11.4851 16.37L16.3801 12.28V20H19.2453C19.5692 20 19.8799 19.8567 20.109 19.6016C20.3381 19.3466 20.4668 19.0007 20.4668 18.64V7.04997C20.4836 6.66294 20.3992 6.27878 20.2236 5.9442C20.048 5.60961 19.789 5.33902 19.4779 5.1653C19.1667 4.99159 18.817 4.92223 18.4712 4.96567C18.1253 5.0091 17.7983 5.16346 17.5298 5.40997Z" fill="#A3A3A3"/>
</svg>
