<svg width="23" height="24" viewBox="0 0 23 24" fill="none" xmlns="http://www.w3.org/2000/svg">
<path fill-rule="evenodd" clip-rule="evenodd" d="M1.36279 2.838C1.36279 2.35053 1.53672 1.88303 1.84631 1.53834C2.1559 1.19365 2.5758 1 3.01363 1H19.4699C19.6869 0.999608 19.9018 1.04687 20.1023 1.13907C20.3029 1.23127 20.4851 1.36661 20.6386 1.53734C20.7922 1.70807 20.9139 1.91083 20.9969 2.13401C21.08 2.3572 21.1227 2.59643 21.1225 2.838V21.16C21.1228 21.4016 21.0802 21.6409 20.9973 21.8642C20.9144 22.0875 20.7928 22.2904 20.6393 22.4613C20.4859 22.6322 20.3038 22.7678 20.1032 22.8602C19.9027 22.9526 19.6878 23.0001 19.4708 23H3.01363C2.79676 23 2.58202 22.9524 2.38167 22.86C2.18133 22.7676 1.9993 22.6321 1.84599 22.4613C1.69269 22.2905 1.57111 22.0878 1.4882 21.8647C1.40529 21.6416 1.36268 21.4025 1.36279 21.161V2.838ZM9.18406 9.388H11.8597V10.884C12.2459 10.024 13.2339 9.25 14.7186 9.25C17.5649 9.25 18.2394 10.963 18.2394 14.106V19.928H15.359V14.822C15.359 13.032 14.9728 12.022 13.992 12.022C12.6312 12.022 12.0654 13.111 12.0654 14.822V19.928H9.18406V9.388ZM4.24412 19.791H7.12545V9.25H4.24412V19.79V19.791ZM7.53771 5.812C7.54315 6.08668 7.49925 6.35979 7.40859 6.61532C7.31794 6.87084 7.18235 7.10364 7.0098 7.30003C6.83724 7.49643 6.63119 7.65248 6.40373 7.75901C6.17628 7.86554 5.932 7.92042 5.68524 7.92042C5.43848 7.92042 5.1942 7.86554 4.96674 7.75901C4.73929 7.65248 4.53323 7.49643 4.36068 7.30003C4.18812 7.10364 4.05254 6.87084 3.96188 6.61532C3.87123 6.35979 3.82733 6.08668 3.83276 5.812C3.84342 5.27286 4.04328 4.75979 4.38952 4.38269C4.73577 4.00558 5.20088 3.79442 5.68524 3.79442C6.1696 3.79442 6.63471 4.00558 6.98095 4.38269C7.3272 4.75979 7.52705 5.27286 7.53771 5.812Z" fill="#A3A3A3"/>
</svg>
