<svg width="22" height="24" viewBox="0 0 22 24" fill="none" xmlns="http://www.w3.org/2000/svg">
<g clip-path="url(#clip0_220_1089)">
<path d="M21.3216 4.93695C20.5716 5.30695 19.766 5.55696 18.919 5.66996C19.7929 5.08775 20.4467 4.17142 20.7584 3.09195C19.9374 3.63494 19.0387 4.01715 18.1016 4.22196C17.4715 3.47282 16.6368 2.97628 15.7272 2.80943C14.8176 2.64258 13.8839 2.81475 13.0712 3.29921C12.2585 3.78367 11.6122 4.55332 11.2326 5.48866C10.853 6.424 10.7614 7.4727 10.972 8.47195C9.30828 8.37895 7.68074 7.8975 6.19499 7.05886C4.70923 6.22022 3.39846 5.04312 2.34774 3.60396C1.98847 4.29396 1.78189 5.09396 1.78189 5.94596C1.78149 6.71295 1.95114 7.4682 2.27578 8.14469C2.60042 8.82118 3.07002 9.39799 3.6429 9.82396C2.97851 9.80042 2.32877 9.60054 1.74776 9.24095V9.30095C1.7477 10.3767 2.08191 11.4193 2.6937 12.252C3.30549 13.0846 4.15717 13.6559 5.10423 13.869C4.48789 14.0547 3.8417 14.082 3.21448 13.949C3.48168 14.8746 4.00217 15.684 4.70307 16.2639C5.40398 16.8438 6.25022 17.1651 7.12331 17.183C5.64118 18.4784 3.81076 19.181 1.9265 19.178C1.59272 19.1781 1.25923 19.1564 0.927734 19.113C2.84037 20.4821 5.06681 21.2088 7.34067 21.206C15.038 21.206 19.2459 14.108 19.2459 7.95195C19.2459 7.75196 19.2414 7.54995 19.2333 7.34995C20.0518 6.69093 20.7584 5.87485 21.3198 4.93995L21.3216 4.93695Z" fill="#A3A3A3"/>
</g>
<defs>
<clipPath id="clip0_220_1089">
<rect width="21.5561" height="24" fill="white" transform="translate(0.0859375)"/>
</clipPath>
</defs>
</svg>
