<svg width="23" height="24" viewBox="0 0 23 24" fill="none" xmlns="http://www.w3.org/2000/svg">
<path fill-rule="evenodd" clip-rule="evenodd" d="M7.54788 1.066C8.60144 1.012 8.93735 1 11.6211 1C14.3048 1 14.6407 1.013 15.6934 1.066C16.746 1.119 17.4646 1.306 18.0933 1.577C18.7517 1.854 19.3489 2.287 19.8429 2.847C20.3459 3.396 20.7339 4.06 20.9818 4.794C21.2261 5.494 21.3932 6.294 21.4417 7.464C21.4902 8.639 21.501 9.013 21.501 12C21.501 14.988 21.4893 15.362 21.4417 16.535C21.3941 17.705 21.2261 18.505 20.9818 19.205C20.7339 19.9391 20.3453 20.6042 19.8429 21.154C19.3489 21.714 18.7517 22.146 18.0933 22.422C17.4646 22.694 16.746 22.88 15.6952 22.934C14.6407 22.988 14.3048 23 11.6211 23C8.93735 23 8.60144 22.987 7.54788 22.934C6.49702 22.881 5.77849 22.694 5.14977 22.422C4.49044 22.146 3.89307 21.7133 3.39923 21.154C2.8966 20.6047 2.50763 19.9399 2.25946 19.206C2.01605 18.506 1.84899 17.706 1.80049 16.536C1.75199 15.361 1.74121 14.987 1.74121 12C1.74121 9.012 1.75289 8.638 1.80049 7.466C1.84809 6.294 2.01605 5.494 2.25946 4.794C2.508 4.06008 2.89726 3.39531 3.40013 2.846C3.89326 2.2865 4.49004 1.85344 5.14887 1.577C5.77759 1.306 6.49612 1.12 7.54698 1.066H7.54788ZM15.6135 3.046C14.5716 2.993 14.259 2.982 11.6211 2.982C8.98316 2.982 8.67059 2.993 7.62872 3.046C6.66498 3.095 6.14225 3.274 5.79376 3.425C5.33299 3.625 5.00337 3.862 4.65757 4.247C4.32978 4.60205 4.07751 5.03428 3.91927 5.512C3.78365 5.9 3.62288 6.482 3.57887 7.555C3.53126 8.715 3.52138 9.063 3.52138 12C3.52138 14.937 3.53126 15.285 3.57887 16.445C3.62288 17.518 3.78365 18.1 3.91927 18.488C4.07735 18.965 4.32974 19.398 4.65757 19.753C4.97642 20.118 5.36533 20.399 5.79376 20.575C6.14225 20.726 6.66498 20.905 7.62872 20.954C8.67059 21.007 8.98226 21.018 11.6211 21.018C14.2599 21.018 14.5716 21.007 15.6135 20.954C16.5772 20.905 17.0999 20.726 17.4484 20.575C17.9092 20.375 18.2388 20.138 18.5846 19.753C18.9124 19.398 19.1648 18.965 19.3229 18.488C19.4585 18.1 19.6193 17.518 19.6633 16.445C19.7109 15.285 19.7208 14.937 19.7208 12C19.7208 9.063 19.7109 8.715 19.6633 7.555C19.6193 6.482 19.4585 5.9 19.3229 5.512C19.1433 4.999 18.9304 4.632 18.5846 4.247C18.2657 3.88207 17.8775 3.60121 17.4484 3.425C17.0999 3.274 16.5772 3.095 15.6135 3.046ZM10.3592 15.391C11.0639 15.7176 11.8487 15.7617 12.5794 15.5157C13.3101 15.2697 13.9414 14.7489 14.3655 14.0422C14.7897 13.3356 14.9803 12.4869 14.9048 11.6411C14.8294 10.7953 14.4925 10.005 13.9518 9.405C13.6072 9.02148 13.1904 8.72781 12.7315 8.54515C12.2727 8.36248 11.7831 8.29536 11.2982 8.34862C10.8132 8.40187 10.3449 8.57418 9.92696 8.85313C9.509 9.13208 9.15178 9.51074 8.88104 9.96185C8.61029 10.413 8.43275 10.9253 8.36119 11.462C8.28963 11.9986 8.32583 12.5463 8.46719 13.0655C8.60856 13.5847 8.85156 14.0626 9.17871 14.4647C9.50586 14.8668 9.90901 15.1832 10.3592 15.391ZM8.0302 8.002C8.50176 7.47697 9.06159 7.0605 9.67771 6.77636C10.2938 6.49222 10.9542 6.34597 11.6211 6.34597C12.288 6.34597 12.9483 6.49222 13.5645 6.77636C14.1806 7.0605 14.7404 7.47697 15.212 8.002C15.6835 8.52702 16.0576 9.15032 16.3128 9.8363C16.568 10.5223 16.6994 11.2575 16.6994 12C16.6994 12.7425 16.568 13.4777 16.3128 14.1637C16.0576 14.8497 15.6835 15.473 15.212 15.998C14.2596 17.0583 12.9679 17.654 11.6211 17.654C10.2742 17.654 8.98256 17.0583 8.0302 15.998C7.07784 14.9377 6.54281 13.4995 6.54281 12C6.54281 10.5005 7.07784 9.06234 8.0302 8.002ZM17.8256 7.188C17.9425 7.06527 18.0361 6.91768 18.1008 6.75397C18.1655 6.59027 18.2 6.41377 18.2024 6.23493C18.2047 6.05609 18.1748 5.87855 18.1144 5.71281C18.054 5.54707 17.9643 5.39651 17.8508 5.27004C17.7372 5.14357 17.6019 5.04376 17.4531 4.97652C17.3042 4.90928 17.1447 4.87598 16.9841 4.87858C16.8235 4.88119 16.665 4.91965 16.5179 4.9917C16.3709 5.06374 16.2383 5.1679 16.1281 5.298C15.9137 5.55103 15.7963 5.88712 15.8009 6.23493C15.8055 6.58274 15.9316 6.91488 16.1525 7.16084C16.3734 7.40681 16.6717 7.54723 16.9841 7.5523C17.2965 7.55737 17.5984 7.42669 17.8256 7.188Z" fill="#A3A3A3"/>
</svg>
