<svg width="94" height="24" viewBox="0 0 94 24" fill="none" xmlns="http://www.w3.org/2000/svg">
<g clip-path="url(#clip0_256_4912)">
<g clip-path="url(#clip1_256_4912)">
<path d="M0.0282593 17.3023L3.39153 14.6999C5.17841 17.0555 7.07688 18.1413 9.19003 18.1413C11.2919 18.1413 13.1367 17.0683 14.843 14.7312L18.2543 17.2709C15.7923 20.641 12.7327 22.4216 9.19003 22.4216C5.65867 22.4216 2.56943 20.6524 0.0282593 17.3023Z" fill="url(#paint0_linear_256_4912)"/>
<path d="M9.17929 5.99154L3.1929 11.2022L0.42572 7.96052L9.19201 0.330078L17.889 7.96618L15.1092 11.1964L9.17929 5.99154Z" fill="url(#paint1_linear_256_4912)"/>
<path fill-rule="evenodd" clip-rule="evenodd" d="M42.522 5.55825C42.522 6.68541 43.3356 7.50721 44.4515 7.50721V7.50867C45.5307 7.50867 46.3641 6.68541 46.3641 5.55825C46.3641 4.46819 45.5307 3.64636 44.4515 3.64636C43.3737 3.64636 42.522 4.46819 42.522 5.55825ZM41.2948 4.41098V18.9984H37.964V4.41098H41.2948ZM31.1515 19.209C29.1078 19.2088 27.4045 18.5397 26.0232 17.2015C24.6418 15.8447 23.9609 14.1054 23.9609 11.9824C23.9609 9.84221 24.6601 8.08301 26.0416 6.70613C27.4428 5.31076 29.1464 4.62305 31.1719 4.62305C33.6707 4.62305 35.8842 5.71168 37.1724 7.41385L34.918 9.80369C33.8388 8.63658 32.665 8.04444 31.3979 8.04444C30.3188 8.04444 29.4289 8.40685 28.6901 9.15309C27.9711 9.89927 27.6123 10.8367 27.6123 11.9638C27.6123 13.0539 27.9711 13.9713 28.6901 14.7175C29.4289 15.4437 30.3188 15.8062 31.3782 15.8062C32.7596 15.8062 33.9716 15.1941 34.9746 13.9898L37.3222 16.2655C36.6781 17.1259 35.8079 17.8336 34.7287 18.3872C33.6498 18.9421 32.4578 19.2089 31.1515 19.209ZM46.1364 8.44431V18.9982H42.7859V8.44431H46.1364ZM48.5383 17.6785C49.5779 18.7115 50.9029 19.228 52.5499 19.228C54.7648 19.228 56.6379 18.1379 57.5476 16.3787L54.8778 14.7736C54.4993 15.5955 53.6094 16.1305 52.6446 16.1305C51.2998 16.1305 50.2969 15.0975 50.2969 13.7021C50.2852 13.0688 50.5235 12.4568 50.9594 12.0014C51.4143 11.5419 51.9821 11.3123 52.6827 11.3123C53.6475 11.3123 54.3863 11.7717 54.916 12.6705L57.5842 11.2551C56.6958 9.24768 54.7832 8.1776 52.6065 8.1776C50.941 8.1776 49.5977 8.69271 48.5567 9.72568C47.5157 10.7586 47.0043 12.077 47.0043 13.7021C47.0043 15.3272 47.5157 16.647 48.5383 17.6785ZM69.1649 18.9984H65.1889L62.1022 14.8108L61.6109 15.2702V18.9984H58.2815V4.41098H61.612V11.5035L64.7536 8.44449H68.8235L64.3387 12.6892L69.1649 18.9984ZM69.3883 4.86922V13.5112C69.3883 17.6788 72.2656 19.2469 75.1615 19.2469C78.0755 19.2469 80.9346 17.6788 80.9346 13.5112V4.86922H77.3566V13.4541C77.3566 15.0022 76.4481 15.8055 75.1615 15.8055C73.855 15.8055 72.9465 15.0407 72.9465 13.4541V4.86922H69.3883ZM88.8422 8.1776C90.3383 8.1776 91.5503 8.71267 92.5148 9.78275C93.4793 10.8343 93.9525 12.154 93.9525 13.7021C93.9525 15.2516 93.4612 16.57 92.4967 17.66C91.5304 18.7301 90.3196 19.2665 88.8621 19.2665C87.7067 19.2665 86.7037 18.8842 85.8897 18.1194V23.3386H82.5393V8.44443H85.8337V9.42033C86.6471 8.59707 87.6501 8.1776 88.8422 8.1776ZM88.1992 11.3127C89.5629 11.3127 90.5455 12.3642 90.5455 13.741H90.5472C90.5554 14.3799 90.3173 14.997 89.8832 15.4617C89.4479 15.9397 88.8802 16.1694 88.1992 16.1694C87.5171 16.1694 86.9494 15.9397 86.496 15.4617C86.0595 14.9838 85.8337 14.4102 85.8337 13.741C85.8337 12.3642 86.8362 11.3127 88.1992 11.3127Z" fill="black"/>
</g>
</g>
<defs>
<linearGradient id="paint0_linear_256_4912" x1="0.0282593" y1="23.8123" x2="18.2543" y2="23.8123" gradientUnits="userSpaceOnUse">
<stop stop-color="#7612FA"/>
<stop offset="1" stop-color="#40DDFF"/>
</linearGradient>
<linearGradient id="paint1_linear_256_4912" x1="0.42572" y1="13.1602" x2="17.889" y2="13.1602" gradientUnits="userSpaceOnUse">
<stop stop-color="#FA12E3"/>
<stop offset="1" stop-color="#FFD700"/>
</linearGradient>
<clipPath id="clip0_256_4912">
<rect width="94" height="23.34" fill="white" transform="translate(0 0.330017)"/>
</clipPath>
<clipPath id="clip1_256_4912">
<rect width="93.9435" height="23.34" fill="white" transform="translate(0.0282593 0.330017)"/>
</clipPath>
</defs>
</svg>
